<?xml version="1.0" standalone="no"?>
<!DOCTYPE svg PUBLIC "-//W3C//DTD SVG 20010904//EN"
 "http://www.w3.org/TR/2001/REC-SVG-20010904/DTD/svg10.dtd">
<svg version="1.0" xmlns="http://www.w3.org/2000/svg"
 width="436.000000pt" height="436.000000pt" viewBox="0 0 436.000000 436.000000"
 preserveAspectRatio="xMidYMid meet">
<metadata>
Created by potrace 1.11, written by Peter Selinger 2001-2013
</metadata>
<g transform="translate(0.000000,436.000000) scale(0.100000,-0.100000)"
fill="#000000" stroke="none">
<path d="M2118 4299 c-119 -107 -259 -290 -328 -430 l-33 -66 -81 55 c-94 64
-246 138 -361 175 -79 26 -205 57 -229 57 -6 0 -20 -26 -30 -57 -10 -32 -22
-69 -27 -83 -39 -118 -63 -370 -48 -530 l4 -45 -35 4 c-52 6 -226 5 -295 -2
-112 -12 -363 -72 -383 -92 -9 -9 28 -164 64 -268 41 -115 116 -265 179 -353
l43 -60 -65 -33 c-95 -47 -222 -134 -316 -216 -82 -72 -167 -162 -167 -177 0
-14 121 -136 193 -195 40 -32 74 -60 77 -63 3 -3 28 -20 55 -38 28 -17 55 -35
60 -39 6 -5 44 -26 86 -48 l77 -39 -43 -61 c-110 -155 -215 -407 -240 -577
l-7 -46 84 -25 c45 -15 95 -29 111 -32 15 -3 39 -7 55 -10 15 -3 32 -7 39 -10
40 -14 298 -24 388 -14 l40 4 -4 -40 c-14 -137 1 -340 35 -480 30 -122 57
-195 73 -195 29 0 185 40 256 66 106 38 246 108 333 168 l78 53 39 -76 c47
-92 107 -180 192 -283 63 -76 180 -188 197 -188 14 0 143 129 206 205 71 87
146 201 184 281 l29 61 79 -53 c87 -60 227 -130 333 -168 71 -26 227 -66 255
-66 29 0 90 220 105 375 10 101 12 231 5 279 -3 23 -5 47 -3 52 2 6 28 7 62 4
102 -10 273 -2 356 16 11 2 31 6 45 8 38 6 107 24 183 48 75 24 74 22 52 118
-41 176 -125 370 -218 508 l-54 79 66 33 c85 42 197 117 291 195 82 69 190
179 190 194 0 13 -164 179 -220 223 -73 57 -190 132 -261 168 l-66 33 54 79
c62 92 98 160 147 283 33 81 86 272 86 307 0 27 -219 87 -381 104 -88 9 -214
11 -271 4 -26 -4 -51 -3 -56 2 -4 4 -5 33 -2 64 9 78 -2 333 -15 354 -2 3 -6
21 -9 41 -9 61 -30 134 -70 245 -3 8 -38 3 -113 -16 -194 -50 -373 -129 -508
-225 l-60 -43 -39 77 c-61 121 -162 258 -276 373 l-105 107 -67 -60z"/>
</g>
</svg>
